<mxfile host="app.diagrams.net" modified="2023-09-22T02:30:24.782Z" agent="Mozilla/5.0 (Windows NT 10.0; Win64; x64) AppleWebKit/537.36 (KHTML, like Gecko) Chrome/116.0.0.0 Safari/537.36" version="21.8.0" etag="1tRCkEjusFgwJBH4IXGY" type="github">
  <diagram name="第 1 页" id="-mHX9SmMz8cB-tHm5ArR">
    <mxGraphModel>
      <root>
        <mxCell id="0" />
        <mxCell id="1" parent="0" />
      </root>
    </mxGraphModel>
  </diagram>
</mxfile>
